<svg xmlns="http://www.w3.org/2000/svg" viewBox="0 0 1180 300" width="1180" height="300" role="img" aria-label="TyKolt — Minimal but powerful">
  <!-- README / profile header. Built from logo/lockup-horizontal.svg (outlined
       JetBrains Mono — zero font dependency, renders identically anywhere) on a
       Jet Black banner. The cyan accents "breathe" like the site hero; motion is
       dropped under prefers-reduced-motion. Self-contained: animation lives inside
       the SVG so it runs even when embedded via <img> on GitHub (which strips
       README-level CSS). Pure-vector, self-hosted, zero third-party services. -->
  <style>
    @keyframes tk-breathe { 0%, 100% { opacity: 1; } 50% { opacity: 0.55; } }
    path[fill="#00E5FF"] { animation: tk-breathe 3.2s ease-in-out 0.6s infinite; }
    @media (prefers-reduced-motion: reduce) { path[fill="#00E5FF"] { animation: none; } }
  </style>
  <rect width="1180" height="300" fill="#000000"/>
  <clipPath id="kleg"><rect x="252.3" y="120.8" width="27.2" height="31.2"/></clipPath>
  <path d="M46.1 145.5 L46.1 136.3 L69.3 125.6 Q70.9 124.9 72.4 124.4 Q74 123.9 74.9 123.7 Q74 123.5 72.4 123 Q70.8 122.6 69.3 121.9 L46.1 111.1 L46.1 101.8 L81.9 118.6 L81.9 128.6 L46.1 145.5 Z Z M155 150 L155 100.6 L139.7 100.6 L139.7 91.6 L180.3 91.6 L180.3 100.6 L165 100.6 L165 150 L155 150 Z M197.2 164.4 L203.4 147.6 L186.9 106 L197.4 106 L205.9 128.5 Q206.6 130.5 207.4 132.9 Q208.1 135.2 208.4 137.2 Q208.6 135.2 209.3 132.9 Q210 130.5 210.7 128.5 L218.6 106 L229.1 106 L207.7 164.4 L197.2 164.4 Z M238.1 150 L238.1 91.6 L248.1 91.6 L248.1 115.4 L255 115.4 L266.1 91.6 L276.9 91.6 L263.8 119.4 L277.5 150 L266.4 150 L254.9 124.2 L248.1 124.2 L248.1 150 L238.1 150 Z M304 150.7 Q295.5 150.7 290.6 146 Q285.6 141.2 285.6 133.1 L285.6 122.9 Q285.6 114.7 290.6 110 Q295.5 105.3 304 105.3 Q312.5 105.3 317.4 110 Q322.4 114.7 322.4 122.9 L322.4 133.1 Q322.4 141.2 317.4 146 Q312.5 150.7 304 150.7 Z M304 142 Q308 142 310.2 139.8 Q312.4 137.6 312.4 133.4 L312.4 122.6 Q312.4 118.4 310.2 116.2 Q308 114 304 114 Q300 114 297.8 116.2 Q295.6 118.4 295.6 122.6 L295.6 133.4 Q295.6 137.6 297.8 139.8 Q300 142 304 142 Z M359.1 150 Q352.6 150 348.6 146.1 Q344.6 142.2 344.6 135.8 L344.6 100.6 L330.2 100.6 L330.2 91.6 L354.6 91.6 L354.6 135.5 Q354.6 138 356 139.5 Q357.4 141 359.8 141 L372.7 141 L372.7 150 L359.1 150 Z M404.4 150 Q398.2 150 394.6 146.5 Q391 142.9 391 136.8 L391 115 L378.8 115 L378.8 106 L391 106 L391 93.6 L401 93.6 L401 106 L418.6 106 L418.6 115 L401 115 L401 136.6 Q401 138.5 402.1 139.8 Q403.2 141 405.1 141 L418.2 141 L418.2 150 L404.4 150 Z" fill="#FFFFFF"/>
  <path d="M238.1 150 L238.1 91.6 L248.1 91.6 L248.1 115.4 L255 115.4 L266.1 91.6 L276.9 91.6 L263.8 119.4 L277.5 150 L266.4 150 L254.9 124.2 L248.1 124.2 L248.1 150 L238.1 150 Z" fill="#00E5FF" clip-path="url(#kleg)"/>
  <path d="M47.6 200 L47.6 178.1 L52.5 178.1 L55 187.5 L57.5 178.1 L62.4 178.1 L62.4 200 L58.9 200 L58.9 190.8 Q58.9 188.9 59 186.9 Q59.1 184.8 59.2 183 Q59.4 181 59.6 179.5 L56.5 190.5 L53.4 190.5 L50.4 179.8 Q50.7 181.8 50.9 184.7 Q51.1 187.6 51.1 190.8 L51.1 200 L47.6 200 Z M67.3 200 L67.3 196.6 L72.9 196.6 L72.9 186.9 L67.9 186.9 L67.9 183.5 L76.7 183.5 L76.7 196.6 L81.7 196.6 L81.7 200 L67.3 200 Z M74.5 180.7 Q73.4 180.7 72.7 180.2 Q72.1 179.6 72.1 178.6 Q72.1 177.6 72.7 177 Q73.4 176.4 74.5 176.4 Q75.7 176.4 76.3 177 Q77 177.6 77 178.6 Q77 179.6 76.3 180.2 Q75.7 180.7 74.5 180.7 Z M86.3 200 L86.3 183.5 L89.9 183.5 L89.9 186.6 Q90.2 185 91.4 184.1 Q92.6 183.2 94.4 183.2 Q96.8 183.2 98.3 184.8 Q99.7 186.4 99.7 189.2 L99.7 200 L96 200 L96 189.6 Q96 188.1 95.2 187.3 Q94.4 186.4 93 186.4 Q91.6 186.4 90.8 187.3 Q90 188.1 90 189.7 L90 200 L86.3 200 Z M105.2 200 L105.2 196.6 L110.9 196.6 L110.9 186.9 L105.8 186.9 L105.8 183.5 L114.6 183.5 L114.6 196.6 L119.7 196.6 L119.7 200 L105.2 200 Z M112.5 180.7 Q111.4 180.7 110.7 180.2 Q110 179.6 110 178.6 Q110 177.6 110.7 177 Q111.4 176.4 112.5 176.4 Q113.6 176.4 114.3 177 Q115 177.6 115 178.6 Q115 179.6 114.3 180.2 Q113.6 180.7 112.5 180.7 Z M123.4 200 L123.4 183.5 L126.5 183.5 L126.5 185.9 L126.6 185.9 Q126.7 184.7 127.4 183.9 Q128.2 183.2 129.3 183.2 Q130.4 183.2 131.2 183.9 Q132 184.6 132.2 185.8 Q132.4 184.6 133.1 183.9 Q133.9 183.2 135.1 183.2 Q136.6 183.2 137.6 184.4 Q138.6 185.6 138.6 187.4 L138.6 200 L135.2 200 L135.2 187.7 Q135.2 186.9 134.9 186.4 Q134.5 186 133.8 186 Q132.5 186 132.5 187.7 L132.5 200 L129.5 200 L129.5 187.7 Q129.5 186.9 129.1 186.4 Q128.8 186 128.1 186 Q126.7 186 126.7 187.7 L126.7 200 L123.4 200 Z M148.1 200.3 Q145.6 200.3 144.1 198.9 Q142.7 197.4 142.7 195.1 Q142.7 192.7 144.3 191.3 Q146 189.9 148.9 189.9 L152.9 189.9 L152.9 188.7 Q152.9 186.2 150 186.2 Q148.7 186.2 147.9 186.7 Q147.1 187.2 147 188.2 L143.4 188.2 Q143.5 186 145.3 184.6 Q147 183.2 150 183.2 Q153.2 183.2 154.9 184.7 Q156.6 186.1 156.6 188.8 L156.6 200 L153 200 L153 196.9 Q152.8 198.5 151.5 199.4 Q150.2 200.3 148.1 200.3 Z M149.3 197.2 Q151 197.2 151.9 196.4 Q152.9 195.6 152.9 194.3 L152.9 192.3 L149.1 192.3 Q147.8 192.3 147.1 193 Q146.4 193.7 146.4 194.8 Q146.4 195.9 147.1 196.6 Q147.9 197.2 149.3 197.2 Z M171.6 200 Q169.1 200 167.6 198.5 Q166.2 197.1 166.2 194.7 L166.2 181.5 L160.8 181.5 L160.8 178.1 L169.9 178.1 L169.9 194.6 Q169.9 195.5 170.4 196.1 Q171 196.6 171.9 196.6 L176.7 196.6 L176.7 200 L171.6 200 Z Z M208.4 200.3 Q206.7 200.3 205.5 199.4 Q204.3 198.6 203.9 197 L203.9 200 L200.2 200 L200.2 178.1 L204 178.1 L204 182.7 L203.9 186.5 Q204.3 184.9 205.5 184.1 Q206.7 183.2 208.4 183.2 Q210.8 183.2 212.3 184.9 Q213.8 186.6 213.8 189.5 L213.8 194 Q213.8 196.9 212.3 198.6 Q210.8 200.3 208.4 200.3 Z M207 197.1 Q208.4 197.1 209.2 196.3 Q210 195.5 210 193.9 L210 189.6 Q210 188 209.2 187.2 Q208.4 186.4 207 186.4 Q205.6 186.4 204.8 187.3 Q204 188.2 204 189.8 L204 193.7 Q204 195.3 204.8 196.2 Q205.6 197.1 207 197.1 Z M225.9 200.3 Q222.8 200.3 221 198.6 Q219.2 196.8 219.2 193.8 L219.2 183.5 L222.9 183.5 L222.9 193.7 Q222.9 195.3 223.7 196.2 Q224.5 197 225.9 197 Q227.3 197 228.1 196.2 Q228.9 195.3 228.9 193.7 L228.9 183.5 L232.7 183.5 L232.7 193.8 Q232.7 196.8 230.8 198.6 Q229 200.3 225.9 200.3 Z M246.5 200 Q244.2 200 242.9 198.7 Q241.5 197.3 241.5 195.1 L241.5 186.9 L236.9 186.9 L236.9 183.5 L241.5 183.5 L241.5 178.8 L245.3 178.8 L245.3 183.5 L251.9 183.5 L251.9 186.9 L245.3 186.9 L245.3 195 Q245.3 195.7 245.7 196.2 Q246.1 196.6 246.8 196.6 L251.7 196.6 L251.7 200 L246.5 200 Z Z M276.2 205.4 L276.2 183.5 L279.9 183.5 L279.9 186.5 Q280.3 185 281.5 184.1 Q282.6 183.2 284.4 183.2 Q286 183.2 287.2 184 Q288.4 184.8 289.1 186.2 Q289.8 187.6 289.8 189.5 L289.8 194 Q289.8 196.8 288.3 198.6 Q286.8 200.3 284.4 200.3 Q282.6 200.3 281.4 199.4 Q280.3 198.5 279.8 196.9 L279.9 200.8 L279.9 205.4 L276.2 205.4 Z M283 197.1 Q284.4 197.1 285.2 196.3 Q286 195.5 286 193.9 L286 189.6 Q286 188 285.2 187.2 Q284.4 186.4 283 186.4 Q281.5 186.4 280.7 187.3 Q279.9 188.2 279.9 189.8 L279.9 193.7 Q279.9 195.3 280.7 196.2 Q281.5 197.1 283 197.1 Z M301.9 200.3 Q298.7 200.3 296.8 198.5 Q295 196.7 295 193.7 L295 189.8 Q295 186.8 296.8 185 Q298.7 183.2 301.9 183.2 Q305.1 183.2 306.9 185 Q308.8 186.8 308.8 189.8 L308.8 193.7 Q308.8 196.7 306.9 198.5 Q305.1 200.3 301.9 200.3 Z M301.9 197 Q303.4 197 304.2 196.2 Q305 195.3 305 193.8 L305 189.7 Q305 188.2 304.2 187.3 Q303.4 186.5 301.9 186.5 Q300.4 186.5 299.5 187.3 Q298.7 188.2 298.7 189.7 L298.7 193.8 Q298.7 195.3 299.5 196.2 Q300.4 197 301.9 197 Z M314.9 200 L312.3 183.5 L315.3 183.5 L316.8 193.6 Q316.9 194.5 317 195.6 Q317.1 196.7 317.1 197.4 Q317.2 196.7 317.3 195.6 Q317.3 194.5 317.5 193.6 L319.3 183.5 L322.4 183.5 L324.2 193.6 Q324.4 194.5 324.5 195.7 Q324.6 196.7 324.6 197.4 Q324.7 196.7 324.8 195.7 Q324.8 194.5 325 193.6 L326.5 183.5 L329.4 183.5 L326.7 200 L322.9 200 L321.3 189.8 Q321.2 189 321 187.9 Q320.9 186.8 320.9 186.1 Q320.8 186.8 320.7 187.9 Q320.5 189 320.4 189.8 L318.8 200 L314.9 200 Z M339.9 200.3 Q337.8 200.3 336.2 199.5 Q334.7 198.7 333.8 197.2 Q332.9 195.7 332.9 193.7 L332.9 189.8 Q332.9 187.8 333.8 186.3 Q334.7 184.8 336.2 184 Q337.8 183.2 339.9 183.2 Q341.9 183.2 343.5 184 Q345 184.8 345.9 186.3 Q346.8 187.7 346.8 189.7 L346.8 192.7 L336.6 192.7 L336.6 193.8 Q336.6 195.5 337.4 196.4 Q338.3 197.2 339.9 197.2 Q341.1 197.2 341.9 196.8 Q342.7 196.4 342.8 195.6 L346.6 195.6 Q346.2 197.8 344.3 199 Q342.5 200.3 339.9 200.3 Z M336.6 189.7 L336.6 190.2 L343.1 190.2 L343.1 189.7 Q343.1 187.9 342.3 187 Q341.5 186.1 339.9 186.1 Q338.2 186.1 337.4 187 Q336.6 188 336.6 189.7 Z M352.8 200 L352.8 183.5 L356.4 183.5 L356.4 186.7 Q356.7 185.1 357.9 184.2 Q359.1 183.2 361 183.2 Q363.5 183.2 364.9 184.8 Q366.3 186.4 366.3 189.3 L366.3 190.9 L362.6 190.9 L362.6 189.5 Q362.6 188 361.8 187.2 Q361 186.4 359.6 186.4 Q358.1 186.4 357.3 187.3 Q356.5 188.2 356.5 189.9 L356.5 200 L352.8 200 Z M374.8 200 L374.8 189.1 L370.3 189.1 L370.3 185.8 L374.8 185.8 L374.8 182.8 Q374.8 180.7 376.3 179.4 Q377.7 178.1 380.1 178.1 L384.9 178.1 L384.9 181.4 L380.2 181.4 Q379.4 181.4 379 181.8 Q378.6 182.2 378.6 182.9 L378.6 185.8 L384.9 185.8 L384.9 189.1 L378.6 189.1 L378.6 200 L374.8 200 Z M396.8 200.3 Q393.7 200.3 391.9 198.6 Q390.1 196.8 390.1 193.8 L390.1 183.5 L393.8 183.5 L393.8 193.7 Q393.8 195.3 394.6 196.2 Q395.4 197 396.8 197 Q398.2 197 399 196.2 Q399.8 195.3 399.8 193.7 L399.8 183.5 L403.6 183.5 L403.6 193.8 Q403.6 196.8 401.7 198.6 Q399.9 200.3 396.8 200.3 Z M418.5 200 Q416 200 414.5 198.5 Q413.1 197.1 413.1 194.7 L413.1 181.5 L407.6 181.5 L407.6 178.1 L416.8 178.1 L416.8 194.6 Q416.8 195.5 417.3 196.1 Q417.8 196.6 418.8 196.6 L423.6 196.6 L423.6 200 L418.5 200 Z M434.8 200.3 Q433.5 200.3 432.8 199.6 Q432 198.8 432 197.5 Q432 196.3 432.8 195.5 Q433.5 194.8 434.8 194.8 Q436.1 194.8 436.8 195.5 Q437.6 196.3 437.6 197.5 Q437.6 198.8 436.8 199.6 Q436.1 200.3 434.8 200.3 Z" fill="#A8B0B8"/>
  <g transform="translate(784.9 52.0) scale(0.5799)">
    <path fill="#FFFFFF" fill-rule="evenodd" d="M303.0 230.0 L287.5 303.5 L311.5 323.0 L315.5 324.5 L315.0 242.0 L304.5 230.0Z M334.5 223.0 L333.0 223.5 L324.0 235.5 L324.0 324.0 L325.0 325.0 L352.5 303.5Z M285.5 210.0 L283.5 210.5 L256.0 278.0 L256.5 280.0 L278.0 297.0 L279.5 297.0 L295.5 223.0 L294.0 219.0Z M351.0 203.0 L342.0 213.0 L359.5 293.5 L360.5 296.5 L362.0 297.0 L384.0 279.0 L384.0 277.5 L359.0 220.5 L353.0 204.0Z M122.5 153.0 L122.0 154.5 L147.0 177.5 L201.5 177.0 L203.0 178.5 L203.0 250.5 L231.5 250.5 L231.5 178.5 L233.0 177.0 L253.0 177.0 L253.0 175.5 L223.5 144.5 L208.5 144.5Z M403.5 142.5 L360.0 193.5 L415.0 250.0 L452.5 251.0 L452.5 249.0 L396.5 192.5 L410.5 177.0 L494.0 177.0 L517.5 153.0Z M76.5 119.5 L80.0 120.0 L102.5 142.5 L104.0 145.5 L104.0 144.0 L83.0 122.5 L79.0 119.5Z M324.0 219.0 L404.0 126.0 L562.0 111.0 L586.5 85.0 L375.5 85.5 L324.0 142.0Z M52.5 85.0 L78.5 111.0 L217.0 125.0 L315.5 226.5 L315.0 141.5 L264.0 85.5Z M359.0 54.0 L354.0 54.5 L349.5 56.5 L325.5 78.0 L326.0 125.0 L330.0 122.0 L360.0 89.5 L351.0 66.5 L360.0 55.5Z M297.5 32.5 L276.5 85.5 L319.5 131.5 L320.5 130.0 L320.0 75.5 L338.0 58.0 L344.5 46.0 L334.5 46.0 L319.5 32.5Z M363.0 30.5 L351.0 49.0 L371.5 48.0 L378.0 55.0 L379.5 55.0 L379.0 40.5 L373.0 35.5 L365.0 30.5Z M282.0 14.5 L283.0 16.5 L299.0 27.0 L360.0 27.0 L360.0 25.5 L355.0 21.5 L341.5 14.5Z"/>
    <path fill="#00E5FF" fill-rule="evenodd" d="M539.5 155.5 L529.0 154.0 L525.0 154.5 L503.5 176.5 L512.0 177.0 L539.0 157.5Z M100.0 155.5 L100.5 157.5 L128.0 177.0 L136.5 176.5 L114.5 154.5Z M89.5 121.5 L110.5 143.0 L114.0 145.0 L211.5 135.0 L152.5 127.5Z M550.0 121.0 L423.5 134.0 L422.5 135.0 L526.5 145.0 L550.0 122.5Z M587.0 118.0 L560.0 120.5 L536.0 145.5 L552.5 146.5 L585.0 121.0Z M53.0 118.0 L56.5 122.5 L87.0 146.0 L91.5 147.0 L103.5 145.5 L103.0 143.5 L80.0 120.5Z M626.0 86.0 L625.0 85.0 L596.0 85.0 L572.5 108.0 L572.5 109.5 L601.0 107.0Z M14.0 85.5 L39.0 107.0 L67.5 109.5 L44.5 85.5Z M330.0 33.0 L335.5 39.0 L339.0 41.0 L344.0 40.0 L349.5 34.5 L345.5 32.5Z"/>
  </g>
</svg>
