<svg xmlns="http://www.w3.org/2000/svg" viewBox="0 0 80 80" width="80" height="80" role="img" aria-label="tykolt.dev">
  <!-- POSSE hub tile: the spoke points back to the hub (tykolt.dev). The falcon
       mark (logo/falcon-white.svg) on the brand Jet Black tile. -->
  <rect x="1" y="1" width="78" height="78" rx="18" fill="#000000" stroke="#262626" stroke-width="1.5"/>
  <g transform="translate(13 25.7) scale(0.084375)">
    <path fill="#FFFFFF" fill-rule="evenodd" d="M303.0 230.0 L287.5 303.5 L311.5 323.0 L315.5 324.5 L315.0 242.0 L304.5 230.0Z M334.5 223.0 L333.0 223.5 L324.0 235.5 L324.0 324.0 L325.0 325.0 L352.5 303.5Z M285.5 210.0 L283.5 210.5 L256.0 278.0 L256.5 280.0 L278.0 297.0 L279.5 297.0 L295.5 223.0 L294.0 219.0Z M351.0 203.0 L342.0 213.0 L359.5 293.5 L360.5 296.5 L362.0 297.0 L384.0 279.0 L384.0 277.5 L359.0 220.5 L353.0 204.0Z M122.5 153.0 L122.0 154.5 L147.0 177.5 L201.5 177.0 L203.0 178.5 L203.0 250.5 L231.5 250.5 L231.5 178.5 L233.0 177.0 L253.0 177.0 L253.0 175.5 L223.5 144.5 L208.5 144.5Z M403.5 142.5 L360.0 193.5 L415.0 250.0 L452.5 251.0 L452.5 249.0 L396.5 192.5 L410.5 177.0 L494.0 177.0 L517.5 153.0Z M76.5 119.5 L80.0 120.0 L102.5 142.5 L104.0 145.5 L104.0 144.0 L83.0 122.5 L79.0 119.5Z M324.0 219.0 L404.0 126.0 L562.0 111.0 L586.5 85.0 L375.5 85.5 L324.0 142.0Z M52.5 85.0 L78.5 111.0 L217.0 125.0 L315.5 226.5 L315.0 141.5 L264.0 85.5Z M359.0 54.0 L354.0 54.5 L349.5 56.5 L325.5 78.0 L326.0 125.0 L330.0 122.0 L360.0 89.5 L351.0 66.5 L360.0 55.5Z M297.5 32.5 L276.5 85.5 L319.5 131.5 L320.5 130.0 L320.0 75.5 L338.0 58.0 L344.5 46.0 L334.5 46.0 L319.5 32.5Z M363.0 30.5 L351.0 49.0 L371.5 48.0 L378.0 55.0 L379.5 55.0 L379.0 40.5 L373.0 35.5 L365.0 30.5Z M282.0 14.5 L283.0 16.5 L299.0 27.0 L360.0 27.0 L360.0 25.5 L355.0 21.5 L341.5 14.5Z M539.5 155.5 L529.0 154.0 L525.0 154.5 L503.5 176.5 L512.0 177.0 L539.0 157.5Z M100.0 155.5 L100.5 157.5 L128.0 177.0 L136.5 176.5 L114.5 154.5Z M89.5 121.5 L110.5 143.0 L114.0 145.0 L211.5 135.0 L152.5 127.5Z M550.0 121.0 L423.5 134.0 L422.5 135.0 L526.5 145.0 L550.0 122.5Z M587.0 118.0 L560.0 120.5 L536.0 145.5 L552.5 146.5 L585.0 121.0Z M53.0 118.0 L56.5 122.5 L87.0 146.0 L91.5 147.0 L103.5 145.5 L103.0 143.5 L80.0 120.5Z M626.0 86.0 L625.0 85.0 L596.0 85.0 L572.5 108.0 L572.5 109.5 L601.0 107.0Z M14.0 85.5 L39.0 107.0 L67.5 109.5 L44.5 85.5Z M330.0 33.0 L335.5 39.0 L339.0 41.0 L344.0 40.0 L349.5 34.5 L345.5 32.5Z"/>
  </g>
</svg>
